<svg id="Capa_1" data-name="Capa 1" xmlns="http://www.w3.org/2000/svg" viewBox="0 0 302.93 285.36"><defs><style>.cls-1{fill:#de140a;}.cls-1,.cls-2,.cls-3{fill-rule:evenodd;}.cls-2{fill:#fff;}</style></defs><path class="cls-1" d="M437,250.62c-1.65-9.25-3.94-18.33-10-25.84-7.1-8.67-16.14-13.5-27.45-11.51-17.72,3.11-35.34,7.06-53.05,10.45a67.83,67.83,0,0,1-13.85,1.51c-6.48-.18-27.18-6.62-23.1-10.25,5.42-4.32,9.39-7.37,14.4-11.14,18.64-14.19,37.42-28.17,56.06-42.39,8.88-6.79,17.86-13.5,25.23-22.07,6.37-5.69-1.07-12.48-6.38-8-6.68,4.63-21.35,16.42-24.23,14.43-3.56-2.67.82-7.13,1.65-8,2.67-2.88,5.34-5.76,8.19-8.43,3.56-3.32,10.28-7.81,8.46-10.86-6.34-9.15-12.57-1.92-14.08-.48-3,2.94-4.39,4.76-7.61,7.5-2.78,2.33-8.57,5-10.25,2.74-2.53-3.46,6.34-9.8,11.89-16.38,3.19-3.25-2.63-13.74-11.79-2-3.32,2.88-6.81,5.28-11.54,5.07a2.54,2.54,0,0,1-2.78-2.19c-1.34-4.59,5-12.65,7.16-15.29,4.66-6.2-3.7-11.54-8-6.75-.93,1.17-4.15,5.42-6.31,7.78-2.05,2.2-2.88,3.94-6.2,2.54-2.67-1-.14-8.6,1.37-14.22a4.8,4.8,0,0,0-2.69-6.23,3.12,3.12,0,0,0-.43-.15c-3.8-.92-6.58,2.06-7.5,4.29-.55,1.33-1,2.7-1.62,4a27,27,0,0,1-2.22,4c-1.92,2.85-4.87,3-7.71,2.3-2.47-.55-3.7-2.54-3.84-5.07-.21-3-.31-5.93-.55-8.88-.17-2.19-.86-4.25-3.32-4.76s-4.8.13-6.14,2.57A13,13,0,0,0,297.39,82c-.48,1.64-.75,3.32-1.09,5-2.57,14.7-9.87-7.37-15.18-8.29-13.44-2.26-5.45,13-5,18.27.55,1.71-.59.78-.89.47-2.75-2.91-6-10.82-8.91-11.89-9.33-2.84-3.5,12-3,17.65.35.89-.2,1.51-.75.93-4.32-3.46-8.88-13.78-13.85-10.42-1.43.89-1.81,4-.37,8.43.55,1.71,3.15,7.64,1.61,9.39-1.3,1.3-4.15,1.27-7.68-.24-3-1.27-5.55-6-10-3.08-3.46,2.67-2.57,6.68.24,9.8,1.65,1.85,3.67,3.39,5.25,5.34A10.28,10.28,0,0,1,240.1,128c1,7.13,1.78,14.33,2.71,21.76-.86.17-2,.45-3.05.62-12.41,1.85-12.48,1.82-18.2,13.09a4.23,4.23,0,0,1-3.87,2.71,60.54,60.54,0,0,0-24.51,7.26c-12.37,6.86-24.5,14.09-36.63,21.32-7.61,4.52-14.74,9.6-20.5,16.45a4,4,0,0,0-.37,5.17c1.61,2.75,4.52,3.74,8.91,2.85,18-3.67,36-7.44,54.08-11.07,9-1.82,18.06-3.29,27.31-1.89a75.88,75.88,0,0,1,35.23,14.81c7,5.28,19.88,16.28,18.33,19.74-1.06,2.33-11.44,3.84-17,5.55-10,3.12-20.19,5.72-30,9.29-11.44,4.21-19,12.3-21,24.78-1.65,10.31.34,19.94,5.17,29.09,8.3,15.7,18.58,28.89,38.42,29.85,9.77.45,18.88-1.13,26.9-7,8.54-6.11,12-16.37,7.58-24.37-5.89-10.87-14.9-18.41-27.89-8.33-3.91,5-1.27,13-.58,16.21-5.69-.69-11-8-11.07-13.54-.11-4,.41-8,4.07-10.11,6.14-3.46,12.34-6.92,18.92-9.32,6.41-2.37,12.58-.79,17.72,4.15a61.07,61.07,0,0,1,13.91,20.83,28.41,28.41,0,0,1-.2,23.51A93.14,93.14,0,0,0,300,345.21c-1.64,6.41-.1,9.76,5.56,13.16,5.07,3,10.65,3.42,16.38,3.05,6.82-.41,8.63-1.89,10-8.6.79-4.12,1.34-8.26,2.23-12.38a3.19,3.19,0,0,1,2.12-1.88c.48-.1,1.68,1.06,1.85,1.82,1.27,5.48,2.54,11,3.43,16.48.34,2.23,1.3,3.22,3.43,3.19,8.22-.24,16.14-1.61,23.06-6.52a4.21,4.21,0,0,0,1.61-3.18,55.5,55.5,0,0,0-2-11.21c-2.33-7.06-5.28-13.91-7.78-20.9a14.75,14.75,0,0,1-.82-6.45c.48-3.66,1.71-7.23,2.43-10.86,1.65-8.23,3.7-16.42,4.63-24.74.68-5.9,2.81-10.39,7.54-13.75,5.65-4,12.23-5.69,18.85-7.19,6.92-1.58,12.78,4.21,11.37,11.58-3-1.64-5.82-3.39-8.84-4.8a7.19,7.19,0,0,0-8.67,1.51c-6.51,6.85-5.17,21.18,2.57,26.73,4.39,3.15,9.53,3.81,14.7,4.05,15.39.68,27.93-5.45,32.59-22.38A48.87,48.87,0,0,0,437,250.62ZM255.5,321.87c4.73-3,8-3.53,11.35-.82a10.55,10.55,0,0,1,2.67,12.2c-1.27-1.75-2.4-3.36-3.57-5s-2.33-3.26-3.49-4.9c-.45.31-.86.58-1.3.85-.79,2.37-1.55,4.77-2.33,7.17-.45,1.37-.38,3.18-2.68,3s-3.87-1.2-4.25-3.5c-.7-3.69.46-7,3.58-9Zm-28.85-16.25c-3.81,1.55-5.18.93-6.34-2.91a37.37,37.37,0,0,1-1-4.18c-1-5.65,1.51-10.18,6.27-11.75a10.86,10.86,0,0,1,13.13,5.38c4.21,7.91,1.92,18.88-5.72,25.66V303.09l-6.36,2.53Zm43.76-34.33a10.64,10.64,0,0,1-3.8,4.79,72.05,72.05,0,0,1-12.07,5.73c-2.77,1-5.62.17-8.09-1.68-4.69-3.43-6.82-10.9-4.55-16.25,2-4.76,4.93-6.65,10-6.3,1.68.1,3.39.34,6,.61l-3.59,2.61a43.25,43.25,0,0,0-3.91,2.84c-2,1.72-3.36,3.84-2.43,6.55.65,1.95,4.86,3.43,7.36,2.19A60.59,60.59,0,0,0,264,266.9c1.23-.86,2.16-2.19,3.91-.79s3.54,2.81,2.48,5.18ZM323,341.85C322,345.45,321,349,320,352.92c-4-2-7.88-3.81-12.44-6,2.78-4.93,5.25-9.69,8.09-14.22,1.61-2.53,4-2.6,5.76-.07,1.16,1.68,1.44,4,1.85,6.1a7.51,7.51,0,0,1-.33,3.12ZM302.5,240.51c6.85-5,14.77-5.62,22.79-3.29,12.78,3.77,21.45,12,24.85,25C354.66,279.59,343.93,293,326,293c-16.18,0-29.78-10.11-32.9-24.95C290.78,257.2,293.08,247.36,302.5,240.51ZM283.5,210c4.9.48,8.29,3.66,11.72,6.75,1,.92,1.89,1.88,2.88,2.81,3,2.88,3.74,5.21,2.5,8.39a11.3,11.3,0,0,1-8.87,6.89c-1.34-.68-3-1-4-2-3.26-3.32-6.44-6.82-9.39-10.45a13.41,13.41,0,0,1-2.43-5.38c-.83-4.14,2.91-7.46,7.57-7Zm-121-5.66c3.8-2.3,7.57-4.66,11.41-6.89,14.84-8.53,30.36-15.49,47.15-19,14.57-3,27.42,1.17,38.46,11,4.14,3.73,5.2,8.77,5.48,14,.1,2.09-1.34,2.64-2.71,2.47a64.94,64.94,0,0,1-11.41-2.1,42.66,42.66,0,0,1-9.25-4.59c-8.63-5.26-17.63-6.45-27.48-4.4-16.55,3.46-33.17,6.55-49.79,9.77-.52.1-1.07.14-1.61.2a4,4,0,0,0-.24-.51Zm149.18-73.06c13.81,10.41,20.66,24.36,19.46,41.77-.92,13-12.82,26-26.66,29.58-3.19.85-6.48,1.16-9.73,1.71-.18-.34-.31-.68-.48-1,2.29-2,4.52-4.18,6.88-6.1,3.26-2.67,6.58-5.28,10-7.78,6.71-5,9.66-11.68,9.11-19.94-.89-13-6.78-23.17-18-29.92-10-6-25.91-4.52-34.62,5.07-3.66,4-7.06,8.36-10.55,12.51-.72.89-1.44,1.71-2.2,2.57,5.18-18.44,17.41-31.94,36.88-34.27,7.37-.92,14.09,1.41,19.92,5.8Zm44.17,204.59c1.75,3.81,2.88,7.95,4.39,12.2-3.43,1.06-6.38,2-10,3.09-1.89-6.52-3.7-12.79-5.52-19.06,5.21-1.95,9-.72,11.14,3.77ZM242.12,159.73c.58.55,1.81,1.58,2.87,2.75s2.51,2.6,1.2,4.49-2.94,3.63-5.68,2.5c-2-.79-4-1.72-6.58-2.88C236.84,164.16,239.31,162.06,242.12,159.73Zm24.77,5.21c.07-9.76,6.1-15.76,15.94-17.78,12.65-2.64,25.7,7.33,27.24,20.22,1.51,12.57-12.47,25.49-26,20.9-10.84-3.73-17.21-14.87-17.18-23.34Zm64.47,154.19c-4.56.92-9.12.1-12.27-3.74a11.71,11.71,0,0,1-2.26-5.93c-.24-2.22,1.2-3.63,3.66-3.84,7.47-.58,14.88-1.3,22.66-2,1.09,3.36,2.19,6.89,3.49,11C341.23,316.28,336.39,318.06,331.36,319.13ZM377.83,247c-2.68,5.59-9.67,7.89-16.45,5.11,1.51-1.1,2.88-2,4.18-3.05a44,44,0,0,0,6-4.8c2.84-3,1.65-7.3-2.36-7.88a23.73,23.73,0,0,0-9.81.75c-3.87,1.17-7.47,3.36-11.37,5.18-1.82-2.91-1.51-5.55.65-7.78,4.49-4.7,15.39-9.36,23.95-4.29C378.89,233.9,381,240.41,377.83,247ZM406,237.29c3.88.62,5.56-.48,14-9.22,1.27,3,2.57,5.65,3.43,8.43a4.87,4.87,0,0,1-.38,4c-3.87,4.87-9.08,7.33-15.28,6.68s-10-4.42-11.28-10.21c-.92-4.11-.72-8.46-1.06-13.16a85.15,85.15,0,0,1,8.39,2c.69.2,1.31,1.51,1.41,2.4C405.59,231.22,405.72,234.27,406,237.29ZM411.14,289c-3.19-.41-5.14-2.5-6.38-5.17a6.75,6.75,0,0,1,1.24-7.51,4.61,4.61,0,0,1,3.6-1.44c.92.28,1.81,2,2,3.16a49,49,0,0,1,.62,6.51l1,.41c3.36-3.94,6.75-7.88,10.73-12.51.34,2.33,1,4.22.85,6C424.2,284.51,417.17,289.83,411.14,289Z" transform="translate(-134.9 -76.18)"/><path class="cls-2" d="M266.9,165c.07-9.78,6.1-15.76,15.92-17.79,12.66-2.63,25.71,7.34,27.25,20.21,1.5,12.59-12.47,25.52-26,20.91C273.22,184.56,266.85,173.41,266.9,165Zm28.26.19c0-5.54-3.7-9.5-8.91-9.57-5.49-.09-9.53,4-9.55,9.66,0,6,4.3,10.94,9.59,10.82,4.8-.1,8.86-5.1,8.87-11Z" transform="translate(-134.9 -76.18)"/><path class="cls-3" d="M295.16,165.14c0,5.82-4.07,10.81-8.87,10.91-5.29.12-9.63-4.79-9.59-10.82,0-5.65,4.06-9.75,9.55-9.66C291.46,155.64,295.16,159.6,295.16,165.14Z" transform="translate(-134.9 -76.18)"/></svg>